<svg xmlns="http://www.w3.org/2000/svg" width="586.094" height="186.614" viewBox="0 0 586.094 186.614">
  <g id="logo-full" transform="translate(-63.917 -152.725)">
    <g id="tagline_is_here" data-name="tagline is here" transform="translate(231.28 324.339)">
      <text id="S_e_a_r_c_h_._P_i_c_k_._C_o_o_k_._" data-name="S e a r c h . P i c k . C o o k . " transform="translate(104 9)" font-size="11" font-family="MerchantLedgerRegular, Merchant Ledger"><tspan x="-103.532" y="0">S e a r c h . P i c k . C o o k . </tspan></text>
    </g>
    <g id="LOGO" transform="translate(63.917 152.725)">
      <g id="Group_47" data-name="Group 47" transform="translate(0)">
        <text id="REC" transform="translate(98 110.454)" fill="#333" font-size="78" font-family="Lactosa"><tspan x="-97.929" y="0">REC</tspan></text>
        <text id="PICK" transform="translate(427.094 110.012)" fill="#333" font-size="78" font-family="Lactosa"><tspan x="-137.592" y="0">PICK</tspan></text>
        <g id="Group_46" data-name="Group 46" transform="translate(205.82)">
          <path id="Path_190" data-name="Path 190" d="M576.659,407.135c16.156,0,29.252,3.166,29.252,7.073s-13.1,7.075-29.252,7.075-29.252-3.167-29.252-7.075,13.1-7.073,29.252-7.073" transform="translate(-539.447 -294.645)" fill="#333" fill-rule="evenodd"/>
          <path id="Path_191" data-name="Path 191" d="M581.669,243.824s8.5-11.377,19.672-12.483,18.069-.026,19.794,7.522,7.01,67.179,7.01,67.179l-4.961,3.236.108,6.255s-5.823,2.587-9.274-1.617-32.781-56.506-32.781-61.466a81.827,81.827,0,0,1,.432-8.627" transform="translate(-558.319 -196.376)" fill="#ccc" fill-rule="evenodd"/>
          <path id="Path_192" data-name="Path 192" d="M650.556,249.856c1.817,9.21,6.913,66.72,6.913,66.72l-4.961,3.236.108,6.255s-.174.076-.478.182L633.8,262.506s5.978-5.778,8.565-7.719c1.206-.9,4.746-2.975,8.187-4.931" transform="translate(-587.643 -206.909)" fill="#fff" fill-rule="evenodd"/>
          <path id="Path_193" data-name="Path 193" d="M615.854,296.521l22.253,50.518,4.5,1.847-13.7-58.123Z" transform="translate(-577.63 -229.728)" fill="#fff" fill-rule="evenodd"/>
          <path id="Path_194" data-name="Path 194" d="M588.7,252.83l-2.352-4.9-1.567-2.977a44.31,44.31,0,0,0,5.33-.647,1.99,1.99,0,0,1,.335-.04c.524-.088,1.864-.363,5.287-1.193a44.481,44.481,0,0,0,13.508-6.432c2.5-1.808,4.34-3.626,4.333-4.944l0-.046a5.06,5.06,0,0,0-2.34-1.772,18.045,18.045,0,0,0-8.97-1.421,36.72,36.72,0,0,0-7.063,1.15q-1.489.383-2.859.86c-5.519,1.917-9.139,4.783-11.218,7.711-1.874,2.642-2.451,5.227-1.991,7.022.022.084.05.176.084.276a12.588,12.588,0,0,0,9.006,7.254q.238.054.479.1m14.516,39.85a14.468,14.468,0,0,0,4.017-.258,1.375,1.375,0,1,1,.81,2.629,13.612,13.612,0,0,1-3.361.377c3.983,7.435,6.938,12.763,7.381,13.113a3.761,3.761,0,0,0,2.4.642,6.963,6.963,0,0,0,1.752-.271l-12.406-52.278c-5.533,1.886-11.5,2.653-16.787,1.467a21.14,21.14,0,0,1-2.045-.566c1.247,2.482,2.636,5.221,4.112,8.1a18.756,18.756,0,0,0,4.3.742,29.407,29.407,0,0,0,7.547-.758,1.379,1.379,0,0,1,.687,2.672,32.5,32.5,0,0,1-8.364.837,19.743,19.743,0,0,1-2.526-.286c.628,1.219,1.267,2.458,1.912,3.706a17.875,17.875,0,0,0,2.939.4,25.927,25.927,0,0,0,6.941-.626,1.379,1.379,0,1,1,.688,2.672,28.992,28.992,0,0,1-7.758.7c-.418-.019-.828-.053-1.23-.1q.976,1.88,1.961,3.762c.512.073,1.047.127,1.592.152a22,22,0,0,0,6.3-.506,1.377,1.377,0,0,1,.75,2.649,24.92,24.92,0,0,1-7.122.61c.674,1.281,1.341,2.55,2,3.8.09.007.178.012.27.015a19.224,19.224,0,0,0,5.683-.363,1.376,1.376,0,1,1,.77,2.642,20.012,20.012,0,0,1-5.242.507Q602.232,290.825,603.219,292.679Zm9.172-23.754c.46-.272.96-.586,1.5-.947a18.555,18.555,0,0,0,3.082-2.633l-.455-4.279a19.572,19.572,0,0,1-1.987,1.532,31.074,31.074,0,0,1-3.192,1.887Zm1.7,7.171c.22-.141.447-.289.684-.447a18.525,18.525,0,0,0,3.024-2.573l-.46-4.286a19.314,19.314,0,0,1-1.926,1.478c-.868.582-1.66,1.059-2.362,1.446Zm1.564,6.59c.19-.122.385-.25.587-.384a17.776,17.776,0,0,0,2.349-1.9l-.422-3.894a19.417,19.417,0,0,1-1.869,1.429q-.817.548-1.54.975Zm3.3,1.042c-.375.3-.771.587-1.184.864-.507.34-.99.645-1.444.917l3.623,15.258a5.035,5.035,0,0,0,.767-.9C620.488,297.812,619.807,291.616,618.953,283.727Zm-9.989-29.243a27.661,27.661,0,0,0,3.154-1.846,18.769,18.769,0,0,0,3.219-2.78c-.393-3.794-.748-7.271-1.037-10.181-.575.492-1.19.972-1.834,1.437a50.726,50.726,0,0,1-15.421,7.3c-1.548.375-2.858.63-3.965.8l1.834,3.82a34.412,34.412,0,0,0,9.779-2.637l3-1.277.754,3.172Zm6.736-1.15a19.506,19.506,0,0,1-2.057,1.593,28.987,28.987,0,0,1-4.031,2.291l1.07,4.506c.665-.363,1.444-.827,2.321-1.415a18.65,18.65,0,0,0,3.147-2.7C616,256.161,615.847,254.731,615.7,253.335Zm7.43,51.98a11.855,11.855,0,0,1-1.807,1.252l.785,3.3.474,2-1.772,1.03a13.129,13.129,0,0,1-6.232,1.789,9.161,9.161,0,0,1-5.921-1.839c-1.355-1.072-8.495-14.054-15.927-28.212-8.554-16.3-17.7-34.378-18.724-37.341q-.116-.335-.216-.722c-.828-3.226-.03-7.533,2.847-11.589,2.675-3.769,7.186-7.407,13.894-9.736q1.547-.538,3.293-.988a42.217,42.217,0,0,1,8.126-1.314,23.5,23.5,0,0,1,11.728,1.994c3.12,1.537,4.844,3.762,5.263,5.4a4.407,4.407,0,0,1,.132.843c.392,6.97,7.177,68.641,7.2,68.818l-.125,1.152A9.766,9.766,0,0,1,623.13,305.315Z" transform="translate(-553.993 -191.87)" fill="#333"/>
          <path id="Path_195" data-name="Path 195" d="M618.574,205.718s-.906-20.688-3.092-23.7S607.276,172.2,610,160.982s9.831-10.149,14.06-1.915,4.961,14.942.645,21.579-.815,23.939-.815,23.939Z" transform="translate(-573.977 -152.725)" fill="#333" fill-rule="evenodd"/>
          <path id="Path_196" data-name="Path 196" d="M574.5,415.112s-17.235-1.148-20.215-.833a66.072,66.072,0,0,1-18.579-.1c-8.605-1.375-6.084-2.972,1.668-3.421s13.442-.182,17.907,1.267,19.512,1.764,19.512,1.764Z" transform="translate(-529.908 -296.556)" fill="#333" fill-rule="evenodd"/>
          <path id="Path_197" data-name="Path 197" d="M577.988,214.892s-12.112-16.8-12.261-20.513c-.1-2.5.093-7.428-2.539-12.552v0c-1.137-2.653-8.378-12.648-9.379-13.556-.387-.352-1.561.117-3.08,1.019,2.27,2.987,9.3,12.311,10.153,14.176,1.013,2.228-.825,2.113-1.772,1.454-.808-.562-8.274-11.189-10.445-14.293-.663.459-1.348.956-2.033,1.473,2.369,3.042,10.028,12.934,10.884,14.815,1.014,2.227-.825,2.112-1.772,1.454-.8-.556-8.632-11.4-11.051-14.758-.685.551-1.343,1.1-1.948,1.621,2.45,3.229,9.133,12.108,9.958,13.921,1.014,2.229-.824,2.113-1.772,1.454-.764-.53-7.461-10.034-10.034-13.706-.881.849-1.427,1.483-1.418,1.711.053,1.466,9.228,13.686,9.228,13.686h0a16.633,16.633,0,0,0,8.928,6.72c7.5,2.532,15.478,18.28,15.478,18.28Z" transform="translate(-535.025 -161.33)" fill="#333" fill-rule="evenodd"/>
          <path id="Path_198" data-name="Path 198" d="M561.677,423.5s-12.184.078-13.67.555a21.216,21.216,0,0,1-6,1.242h0c-1.554.155-8.82.2-9.643.135a1.957,1.957,0,0,1-1.082-.7c2.221.007,9.134.02,10.248-.078,1.333-.12.411-.437-.291-.52-.6-.072-8.214.015-10.434.042-.141-.184-.279-.377-.409-.57,2.291.017,9.717.067,10.842-.034,1.333-.116.411-.436-.293-.518-.593-.07-8.464-.023-10.9-.007-.117-.2-.223-.394-.313-.573,2.4.007,8.974.017,10.06-.08,1.332-.116.41-.437-.293-.52-.566-.066-7.385.007-10.014.037-.1-.275-.116-.46-.025-.49.584-.188,9.62-.18,9.62-.18a27.942,27.942,0,0,1,6.825.712c4.545,1.02,14.356.332,14.356.332Z" transform="translate(-529.405 -302.513)" fill="#333" fill-rule="evenodd"/>
        </g>
      </g>
    </g>
  </g>
</svg>
