<svg xmlns="http://www.w3.org/2000/svg" xmlns:xlink="http://www.w3.org/1999/xlink" width="169.045" height="2393.093" viewBox="0 0 169.045 2393.093">
  <defs>
    <linearGradient id="linear-gradient" x1="-27.609" y1="10.795" x2="-27.609" y2="10.775" gradientUnits="objectBoundingBox">
      <stop offset="0" stop-color="#c7db6d"/>
      <stop offset="1" stop-color="#95b53b"/>
    </linearGradient>
    <linearGradient id="linear-gradient-2" x1="-26.044" y1="12.286" x2="-26.044" y2="12.26" xlink:href="#linear-gradient"/>
    <linearGradient id="linear-gradient-3" x1="-27.113" y1="13.036" x2="-27.113" y2="13.01" xlink:href="#linear-gradient"/>
    <linearGradient id="linear-gradient-4" x1="-20.55" y1="8.809" x2="-20.55" y2="8.788" xlink:href="#linear-gradient"/>
    <linearGradient id="linear-gradient-5" x1="-21.666" y1="9.255" x2="-21.666" y2="9.234" xlink:href="#linear-gradient"/>
  </defs>
  <g id="long-leaf-mobile" transform="translate(0.548)">
    <g id="Group-6" transform="translate(0)">
      <path id="Path-144" d="M1278.407,568.658l-10.852-2.87a5.174,5.174,0,0,1-3.783-5.841,7.338,7.338,0,0,0-3.135-7.27l-1.163-.784a6.277,6.277,0,0,1-1.786-8.567l1.287-2.028-1.375-2.213a5.853,5.853,0,0,1,1.882-8.061q.214-.133.438-.247l1.245-.633a5.288,5.288,0,0,1,6.958,2.045l.471.806a5.755,5.755,0,0,0,6.025,2.751,3.525,3.525,0,0,1,4.113,2.818,3.657,3.657,0,0,1,.056.483l.232,4.988a5.308,5.308,0,0,0,5.55,5.057c.066,0,.133-.007.2-.013a2.845,2.845,0,0,1,2.687,4.282l-9.049,15.3Z" transform="translate(-1180.147 -529.57)" fill-rule="evenodd" fill="url(#linear-gradient)"/>
      <path id="Path-141" d="M1221.054,547.766l14.339,27.905-10.816,137.872-89.767,293.234,166.219,243.367-88.236,563.546,81.547,501.979,8.467,484.2V2925.8" transform="translate(-1134.81 -533.205)" fill="none" stroke="#18233d" stroke-linecap="round" stroke-width="1" opacity="0.599"/>
      <g id="Group-5" transform="translate(62.138 42.665)">
        <path id="Path_140" data-name="Path 140" d="M1271.334,609.132v-9.55a4.945,4.945,0,0,0-4.478-4.922,7.2,7.2,0,0,1-6.063-4.633l-.335-.888a5.908,5.908,0,0,0-7.156-3.6l-2.521.722-1.746-1.716a5.8,5.8,0,0,0-8.2.069l-.02.021-.856.879a4.5,4.5,0,0,0,.085,6.363l.071.066.714.667a4.776,4.776,0,0,1,.987,5.686,3,3,0,0,0,1.809,4.246l5.114,1.515a4.515,4.515,0,0,1,3.046,5.612c-.035.118-.075.234-.119.349a2.525,2.525,0,0,0,2.978,3.36l16.69-4.251Z" transform="translate(-1238.684 -582.886)" fill-rule="evenodd" fill="url(#linear-gradient-2)"/>
        <line id="Path-143" x1="24.468" y1="18.681" transform="translate(11.872 9.859)" fill="none" stroke="#18233d" stroke-linecap="round" stroke-width="1"/>
      </g>
      <g id="Group_39" data-name="Group 39" transform="translate(100.427 19.719)">
        <path id="Path_141" data-name="Path 141" d="M1291.143,580.458v-9.55a4.945,4.945,0,0,1,4.477-4.922,7.206,7.206,0,0,0,6.064-4.633l.335-.888a5.909,5.909,0,0,1,7.157-3.6l2.521.722,1.746-1.716a5.8,5.8,0,0,1,8.2.069l.02.021.856.879a4.5,4.5,0,0,1-.086,6.363l-.07.066-.715.667a4.776,4.776,0,0,0-.986,5.686,3,3,0,0,1-1.286,4.035,3.037,3.037,0,0,1-.524.211l-5.113,1.515a4.514,4.514,0,0,0-3.046,5.612c.034.118.074.234.119.349a2.526,2.526,0,0,1-2.978,3.36l-16.69-4.251Z" transform="translate(-1287.452 -554.212)" fill-rule="evenodd" fill="url(#linear-gradient-3)"/>
        <line id="Line_13" data-name="Line 13" y1="18.681" x2="24.468" transform="translate(0 9.859)" fill="none" stroke="#18233d" stroke-linecap="round" stroke-width="1"/>
      </g>
      <path id="Path_142" data-name="Path 142" d="M1265.83,664.54V652.6a6.179,6.179,0,0,0-5.6-6.152,9.012,9.012,0,0,1-7.581-5.791l-.418-1.109a7.386,7.386,0,0,0-8.946-4.495l-3.152.9-2.183-2.146a7.245,7.245,0,0,0-10.246.086l-.025.026-1.071,1.1a5.625,5.625,0,0,0,.107,7.954c.029.028.057.056.087.083l.894.834a5.97,5.97,0,0,1,1.233,7.107,3.742,3.742,0,0,0,1.607,5.043,3.672,3.672,0,0,0,.655.263l6.391,1.894a5.645,5.645,0,0,1,3.808,7.016q-.066.221-.149.436a3.157,3.157,0,0,0,3.722,4.2l20.862-5.313Z" transform="translate(-1187.578 591.736)" fill-rule="evenodd" fill="url(#linear-gradient-4)"/>
      <path id="Path_143" data-name="Path 143" d="M1288.982,643.217V631.279a6.181,6.181,0,0,1,5.6-6.153,9.009,9.009,0,0,0,7.581-5.79l.418-1.109a7.386,7.386,0,0,1,8.946-4.495l3.152.9,2.183-2.146a7.246,7.246,0,0,1,10.246.086l.025.026,1.071,1.1a5.625,5.625,0,0,1-.107,7.954c-.029.028-.057.056-.087.083l-.894.833a5.972,5.972,0,0,0-1.233,7.108,3.742,3.742,0,0,1-2.261,5.306l-6.391,1.894a5.644,5.644,0,0,0-3.808,7.015q.066.222.149.437a3.157,3.157,0,0,1-3.722,4.2l-20.862-5.313Z" transform="translate(-1186.594 -545.719)" fill-rule="evenodd" fill="url(#linear-gradient-5)"/>
      <path id="Path_341" data-name="Path 341" d="M1288.982,643.217V631.279a6.181,6.181,0,0,1,5.6-6.153,9.009,9.009,0,0,0,7.581-5.79l.418-1.109a7.386,7.386,0,0,1,8.946-4.495l3.152.9,2.183-2.146a7.246,7.246,0,0,1,10.246.086l.025.026,1.071,1.1a5.625,5.625,0,0,1-.107,7.954c-.029.028-.057.056-.087.083l-.894.833a5.972,5.972,0,0,0-1.233,7.108,3.742,3.742,0,0,1-2.261,5.306l-6.391,1.894a5.644,5.644,0,0,0-3.808,7.015q.066.222.149.437a3.157,3.157,0,0,1-3.722,4.2l-20.862-5.313Z" transform="translate(-1204.499 632.168)" fill-rule="evenodd" fill="url(#linear-gradient-5)"/>
      <line id="Path-142" y1="28.522" x2="38.003" transform="translate(96.373 74.371)" fill="none" stroke="#18233d" stroke-linecap="round" stroke-width="1"/>
      <line id="Path-142-2" data-name="Path-142" y1="28.522" x2="38.003" transform="translate(78.468 1252.258)" fill="none" stroke="#18233d" stroke-linecap="round" stroke-width="1"/>
      <line id="Path-145" x1="34.582" y1="25.134" transform="translate(46.444 1232.301)" fill="none" stroke="#18233d" stroke-linecap="round" stroke-width="1"/>
    </g>
  </g>
</svg>
