<svg xmlns="http://www.w3.org/2000/svg" xmlns:xlink="http://www.w3.org/1999/xlink" width="546.48" height="345.297" viewBox="0 0 546.48 345.297">
  <defs>
    <linearGradient id="linear-gradient" x1="-5.856" y1="3.283" x2="-5.856" y2="3.278" gradientUnits="objectBoundingBox">
      <stop offset="0" stop-color="#c7db6d"/>
      <stop offset="1" stop-color="#95b53b"/>
    </linearGradient>
    <linearGradient id="linear-gradient-2" x1="-10.525" y1="15.402" x2="-10.525" y2="15.377" gradientUnits="objectBoundingBox">
      <stop offset="0" stop-color="#fff"/>
      <stop offset="1" stop-color="#e5e9f3"/>
    </linearGradient>
    <linearGradient id="linear-gradient-3" x1="-17.092" y1="15.402" x2="-17.092" y2="15.376" gradientUnits="objectBoundingBox">
      <stop offset="0" stop-color="#fff"/>
      <stop offset="1" stop-color="#cdd7f0"/>
    </linearGradient>
    <linearGradient id="linear-gradient-4" x1="-4.73" y1="3.283" x2="-4.73" y2="3.278" xlink:href="#linear-gradient"/>
    <linearGradient id="linear-gradient-5" x1="-10.459" y1="58.91" x2="-10.459" y2="58.808" xlink:href="#linear-gradient-2"/>
    <linearGradient id="linear-gradient-6" x1="-62.21" y1="58.904" x2="-62.21" y2="58.802" xlink:href="#linear-gradient-3"/>
    <linearGradient id="linear-gradient-7" x1="-8.959" y1="81.525" x2="-8.959" y2="81.385" xlink:href="#linear-gradient-2"/>
    <linearGradient id="linear-gradient-8" x1="-82.002" y1="81.536" x2="-82.002" y2="81.396" xlink:href="#linear-gradient-3"/>
    <linearGradient id="linear-gradient-9" x1="-2.424" y1="2.493" x2="-2.424" y2="2.49" xlink:href="#linear-gradient"/>
    <linearGradient id="linear-gradient-10" x1="-18.649" y1="20.216" x2="-18.649" y2="20.185" xlink:href="#linear-gradient"/>
    <linearGradient id="linear-gradient-11" x1="-24.496" y1="17.987" x2="-24.496" y2="17.959" xlink:href="#linear-gradient"/>
    <linearGradient id="linear-gradient-12" x1="-21.576" y1="18.133" x2="-21.576" y2="18.106" xlink:href="#linear-gradient"/>
    <linearGradient id="linear-gradient-13" x1="-27.591" y1="52.262" x2="-27.591" y2="52.18" xlink:href="#linear-gradient"/>
    <linearGradient id="linear-gradient-14" x1="-5.077" y1="9.49" x2="-5.077" y2="9.475" xlink:href="#linear-gradient-2"/>
    <linearGradient id="linear-gradient-15" x1="-9.73" y1="9.49" x2="-9.73" y2="9.475" xlink:href="#linear-gradient-3"/>
    <linearGradient id="linear-gradient-16" x1="-9.601" y1="6.615" x2="-9.601" y2="6.606" gradientUnits="objectBoundingBox">
      <stop offset="0" stop-color="#cdd7f0"/>
      <stop offset="1" stop-color="#d9e4ff"/>
    </linearGradient>
  </defs>
  <g id="recipes" transform="translate(-698 -325.897)">
    <path id="Path-47" d="M778.075,478.817c-44.236,84.6,22.976,184.8,167.825,188.441s296.976-31.436,264.04-119.276-156.673-.486-223.226-70.549S822.31,394.216,778.075,478.817Z" fill="#ecf0d7" fill-rule="evenodd"/>
    <path id="Path-48" d="M1019.4,382.895c17.117,43.027,115.473,60.332,130.479,31.781s-30.609-33.07-56.438-72.136S1002.283,339.868,1019.4,382.895Z" fill="#ecf0d7" fill-rule="evenodd"/>
    <rect id="Rectangle_27" data-name="Rectangle 27" width="534.485" height="246.891" rx="9.6" transform="translate(709.515 356.638)" fill="none" stroke="#18233d" stroke-linecap="round" stroke-width="0.96"/>
    <g id="rightCard">
      <path id="Path_220" data-name="Path 220" d="M1077.036,374.891h142.972a4.8,4.8,0,0,1,4.8,4.8V576.634a4.8,4.8,0,0,1-4.8,4.8H1077.036a4.8,4.8,0,0,1-4.8-4.8V379.691A4.8,4.8,0,0,1,1077.036,374.891Z" fill-rule="evenodd" fill="url(#linear-gradient)"/>
      <rect id="Rectangle_28" data-name="Rectangle 28" width="137.252" height="136.636" transform="translate(1080.534 381.882)" fill="#95b53b"/>
      <ellipse id="Ellipse_75" data-name="Ellipse 75" cx="47.24" cy="47.028" rx="47.24" ry="47.028" transform="translate(1107.985 404.76)" fill="#83a329"/>
      <g id="Group_55" data-name="Group 55">
        <path id="Path_221" data-name="Path 221" d="M1181.845,424.769a13.685,13.685,0,0,1-13.691,12.871q-.6,0-1.179-.052a2.6,2.6,0,0,0,1.04,2.647l.54.379a2.626,2.626,0,0,1,0,4.308l-.539.377a2.607,2.607,0,0,0-.984,1.367c.021.024.04.05.061.074h20.426a13.581,13.581,0,0,0-5.673-21.971Z" fill="#436b1c"/>
        <path id="Path_222" data-name="Path 222" d="M1185.78,437.585H1179.6a1.383,1.383,0,1,1,0-2.746h6.182a1.383,1.383,0,1,1,0,2.746Z" fill="#659c35"/>
        <path id="Path_223" data-name="Path 223" d="M1176.661,446.74a1.462,1.462,0,0,1-1.391-1.526v-6.1a1.4,1.4,0,1,1,2.782,0v6.1A1.462,1.462,0,0,1,1176.661,446.74Z" fill="#659c35"/>
        <path id="Path_224" data-name="Path 224" d="M1149.518,486.106h16.868a1.929,1.929,0,0,0,1.682-2.925l-.016-.026a5.966,5.966,0,0,1-.331-5.87,8.6,8.6,0,0,1,3.971-3.764c11.887-5.581,20.316-11.816,21.192-24.538a2.107,2.107,0,0,0-2.109-2.243h-83.867a2.108,2.108,0,0,0-2.11,2.243c.876,12.72,9.3,18.957,21.192,24.538a8.607,8.607,0,0,1,3.971,3.764,5.963,5.963,0,0,1-.331,5.87l-.015.026a1.929,1.929,0,0,0,1.681,2.925Z" fill-rule="evenodd" fill="url(#linear-gradient-2)"/>
        <path id="Path_225" data-name="Path 225" d="M1144.2,468.967q11.058,3.153,14.942,17.14H1131.3a1.929,1.929,0,0,1-1.681-2.925h0l.015-.026a5.963,5.963,0,0,0,.331-5.87,8.607,8.607,0,0,0-3.971-3.764c-11.888-5.581-20.316-11.818-21.192-24.538a2.108,2.108,0,0,1,2.11-2.243h15.673Q1133.369,465.878,1144.2,468.967Z" fill-rule="evenodd" fill="url(#linear-gradient-3)"/>
        <ellipse id="Ellipse_76" data-name="Ellipse 76" cx="17.387" cy="17.269" rx="17.387" ry="17.269" transform="translate(1150.58 406.667)" fill="#ed3f32"/>
        <path id="Path_226" data-name="Path 226" d="M1167.851,410.121a13.821,13.821,0,0,0-13.91,13.732,13.606,13.606,0,0,0,.373,3.114,2.682,2.682,0,0,0,3.028.589l.6-.276a2.686,2.686,0,0,1,3.8,2.167l.06.656a2.669,2.669,0,0,0,2.435,2.4l.664.06a2.649,2.649,0,0,1,2.2,3.753l-.28.6a2.48,2.48,0,0,0-.162.61c.394.033.789.059,1.191.059a13.733,13.733,0,1,0,0-27.464Z" fill="#fe5f41" fill-rule="evenodd"/>
        <path id="Path_227" data-name="Path 227" d="M1165.388,422.938a1.539,1.539,0,0,1-1.086-.445l-4.346-4.29a1.5,1.5,0,0,1,0-2.145,1.548,1.548,0,0,1,2.172,0l4.346,4.29a1.5,1.5,0,0,1,0,2.145A1.543,1.543,0,0,1,1165.388,422.938Z" fill="#c72326" fill-rule="evenodd"/>
        <path id="Path_228" data-name="Path 228" d="M1174.661,432.092a1.542,1.542,0,0,1-1.086-.444l-4.346-4.29a1.5,1.5,0,0,1,0-2.145,1.549,1.549,0,0,1,2.173,0l4.346,4.29a1.5,1.5,0,0,1,0,2.145A1.541,1.541,0,0,1,1174.661,432.092Z" fill="#c72326" fill-rule="evenodd"/>
        <path id="Path_229" data-name="Path 229" d="M1170.315,422.938a1.543,1.543,0,0,1-1.086-.445,1.5,1.5,0,0,1,0-2.145l4.346-4.29a1.55,1.55,0,0,1,2.173,0,1.5,1.5,0,0,1,0,2.145l-4.346,4.29A1.543,1.543,0,0,1,1170.315,422.938Z" fill="#c72326" fill-rule="evenodd"/>
        <path id="Path_230" data-name="Path 230" d="M1161.933,431.177a1.507,1.507,0,0,1-1.061-.434,1.466,1.466,0,0,1,0-2.093l3.492-3.447a1.511,1.511,0,0,1,2.12,0,1.464,1.464,0,0,1,0,2.093l-3.491,3.447A1.5,1.5,0,0,1,1161.933,431.177Z" fill="#c72326" fill-rule="evenodd"/>
        <path id="Path_231" data-name="Path 231" d="M1140.36,432.515a2.689,2.689,0,0,1,1.616,3.685l-.278.6a2.691,2.691,0,0,0,.883,3.318l.543.385a2.69,2.69,0,0,1,0,4.382l-.541.384a2.668,2.668,0,0,0-1.025,1.467h24.526a2.669,2.669,0,0,1,1.026-1.467l.541-.384a2.691,2.691,0,0,0,0-4.382l-.543-.385a2.692,2.692,0,0,1-.883-3.318l.277-.6a2.68,2.68,0,0,0-2.176-3.8l-.66-.06a2.675,2.675,0,0,1-2.414-2.428l-.06-.664a2.662,2.662,0,0,0-3.771-2.19l-.6.277a2.652,2.652,0,0,1-3.3-.888l-.382-.545a2.653,2.653,0,0,0-4.355,0l-.381.545a2.652,2.652,0,0,1-3.3.888l-.6-.281a2.663,2.663,0,0,0-3.771,2.191l-.06.664a6.321,6.321,0,0,1-.6,1.944A.474.474,0,0,0,1140.36,432.515Z" fill="#88c057"/>
        <path id="Path_232" data-name="Path 232" d="M1124.157,425.681,1132.791,413a4.414,4.414,0,0,1,6.266-1.123h0a4.768,4.768,0,0,1,1.085,6.482l-8.634,12.677a4.414,4.414,0,0,1-6.266,1.123h0A4.767,4.767,0,0,1,1124.157,425.681Z" fill="#a46f3e"/>
        <path id="Path_233" data-name="Path 233" d="M1143.55,440.444l-.535-.389a2.754,2.754,0,0,1-.874-3.352l.275-.611a2.712,2.712,0,0,0-2.153-3.836l-.653-.061a2.673,2.673,0,0,1-2.386-2.455l-.06-.67a2.654,2.654,0,0,0-2.644-2.453l-2.818,4.112a4.48,4.48,0,0,1-6.338,1.129h0a4.757,4.757,0,0,1-1.826-4.8,2.542,2.542,0,0,1-2.281.076l-.594-.283a2.632,2.632,0,0,0-3.731,2.214l-.059.67a2.673,2.673,0,0,1-2.387,2.455l-.652.061a2.711,2.711,0,0,0-2.153,3.835l.274.612a2.754,2.754,0,0,1-.873,3.352l-.536.389a2.755,2.755,0,0,0,0,4.43l.536.388a2.7,2.7,0,0,1,1.013,1.481H1142a2.691,2.691,0,0,1,1.013-1.481l.535-.388A2.75,2.75,0,0,0,1143.55,440.444Z" fill="#fdc952" fill-rule="evenodd"/>
        <path id="Path_234" data-name="Path 234" d="M1149.967,436.67a1.594,1.594,0,0,1-1.123-.46,1.553,1.553,0,0,1,0-2.219l2.384-2.354a1.6,1.6,0,0,1,2.247,0,1.553,1.553,0,0,1,0,2.219l-2.384,2.354A1.6,1.6,0,0,1,1149.967,436.67Z" fill="#436b1c"/>
        <path id="Path_235" data-name="Path 235" d="M1158.887,440.332a1.552,1.552,0,0,1-1.092-.447l-1.546-1.526a1.51,1.51,0,0,1,0-2.157,1.557,1.557,0,0,1,2.185,0l1.546,1.526a1.51,1.51,0,0,1,0,2.157A1.555,1.555,0,0,1,1158.887,440.332Z" fill="#436b1c"/>
        <path id="Path_236" data-name="Path 236" d="M1150.851,443.994a1.553,1.553,0,0,1-1.093-.447,1.512,1.512,0,0,1,0-2.158l1.545-1.525a1.557,1.557,0,0,1,2.185,0,1.509,1.509,0,0,1,0,2.157l-1.545,1.526A1.553,1.553,0,0,1,1150.851,443.994Z" fill="#436b1c"/>
      </g>
      <g id="Group_56" data-name="Group 56">
        <line id="Path-96" x2="32.439" transform="translate(1144.042 532.455)" fill="none" stroke="#fff" stroke-width="2.88"/>
        <line id="Line_14" data-name="Line 14" x2="41.186" y2="0.574" transform="translate(1142.883 546.224)" fill="none" stroke="#fff" stroke-width="2.88"/>
        <line id="Line_15" data-name="Line 15" x2="11.585" transform="translate(1144.042 561.141)" fill="none" stroke="#fff" stroke-width="2.88"/>
        <ellipse id="Ellipse_77" data-name="Ellipse 77" cx="20.854" cy="20.654" rx="20.854" ry="20.654" transform="translate(1090.749 526.144)" fill="#95b53b"/>
      </g>
    </g>
    <g id="middleCard">
      <path id="Path_237" data-name="Path 237" d="M905.271,374.891h142.973a4.8,4.8,0,0,1,4.8,4.8V576.634a4.8,4.8,0,0,1-4.8,4.8H905.271a4.8,4.8,0,0,1-4.8-4.8V379.691A4.8,4.8,0,0,1,905.271,374.891Z" fill-rule="evenodd" fill="url(#linear-gradient-4)"/>
      <rect id="Rectangle_29" data-name="Rectangle 29" width="137.252" height="136.636" transform="translate(908.77 381.882)" fill="#6b7d39" opacity="0.318" style="isolation: isolate"/>
      <ellipse id="Ellipse_78" data-name="Ellipse 78" cx="47.24" cy="47.028" rx="47.24" ry="47.028" transform="translate(936.22 404.76)" fill="#83a329"/>
      <g id="Group_70" data-name="Group 70">
        <g id="Group_60" data-name="Group 60">
          <g id="Group_58" data-name="Group 58">
            <ellipse id="Ellipse_79" data-name="Ellipse 79" cx="4.744" cy="4.719" rx="4.744" ry="4.719" transform="translate(952.067 440.456)" fill="#fb4a59"/>
            <path id="Path_238" data-name="Path 238" d="M961.553,445.176a4.727,4.727,0,0,1-4.632,4.716,4.714,4.714,0,0,0-3.482-7.923c-.037,0-.074,0-.111,0a4.748,4.748,0,0,1,8.225,3.2Z" fill="#f82f40"/>
          </g>
          <g id="Group_59" data-name="Group 59">
            <ellipse id="Ellipse_80" data-name="Ellipse 80" cx="4.744" cy="4.719" rx="4.744" ry="4.719" transform="translate(980.216 440.456)" fill="#fb4a59"/>
            <path id="Path_239" data-name="Path 239" d="M989.7,445.176a4.728,4.728,0,0,1-4.633,4.716,4.714,4.714,0,0,0-3.482-7.923c-.036,0-.073,0-.11,0a4.748,4.748,0,0,1,8.225,3.2Z" fill="#f82f40"/>
          </g>
        </g>
        <path id="Path_240" data-name="Path 240" d="M992.634,461.537a10.941,10.941,0,0,0,1.956-6.128c0-8.5-10.613-11.585-23.705-11.585s-23.705,3.083-23.705,11.585a10.943,10.943,0,0,0,1.956,6.128Z" fill="#a3e440"/>
        <path id="Path_241" data-name="Path 241" d="M994.59,455.409a10.943,10.943,0,0,1-1.956,6.128h-6.382a10.951,10.951,0,0,0,1.956-6.128c0-7.8-8.931-11.037-20.514-11.519,1.043-.044,2.109-.066,3.191-.066,13.092,0,23.705,3.083,23.705,11.585Z" fill="#8dc637"/>
        <g id="Group_65" data-name="Group 65">
          <g id="Group_61" data-name="Group 61">
            <path id="Path_242" data-name="Path 242" d="M1007.727,469.073l-12.9-18.959a1.911,1.911,0,0,0-3.155,0l-12.9,18.959a1.894,1.894,0,0,0,1.577,2.957h25.8A1.894,1.894,0,0,0,1007.727,469.073Z" fill="#fc9744"/>
            <path id="Path_243" data-name="Path 243" d="M1006.149,472.03h-6.223a1.894,1.894,0,0,0,1.577-2.958l-11.366-16.7,1.534-2.253a1.909,1.909,0,0,1,3.154,0l12.9,18.958A1.9,1.9,0,0,1,1006.149,472.03Z" fill="#fb8627"/>
          </g>
          <g id="Group_62" data-name="Group 62">
            <path id="Path_244" data-name="Path 244" d="M996.437,469.242l-12.166-17.879a1.8,1.8,0,0,0-2.975,0L969.13,469.242a1.787,1.787,0,0,0,1.487,2.789h24.332A1.787,1.787,0,0,0,996.437,469.242Z" fill="#fcb982"/>
            <path id="Path_245" data-name="Path 245" d="M994.949,472.03h-5.867a1.787,1.787,0,0,0,1.487-2.789L979.85,453.489l1.446-2.126a1.8,1.8,0,0,1,2.975,0l12.165,17.878A1.786,1.786,0,0,1,994.949,472.03Z" fill="#fca863"/>
          </g>
          <g id="Group_63" data-name="Group 63">
            <path id="Path_246" data-name="Path 246" d="M934.043,469.073l12.9-18.959a1.911,1.911,0,0,1,3.155,0L963,469.073a1.9,1.9,0,0,1-1.577,2.958h-25.8A1.9,1.9,0,0,1,934.043,469.073Z" fill="#fca863"/>
            <path id="Path_247" data-name="Path 247" d="M961.422,472.03H955.2a1.9,1.9,0,0,0,1.577-2.958l-11.366-16.7,1.533-2.255a1.91,1.91,0,0,1,3.155,0L963,469.072a1.894,1.894,0,0,1-1.577,2.958Z" fill="#fc9744"/>
          </g>
          <g id="Group_64" data-name="Group 64">
            <path id="Path_248" data-name="Path 248" d="M945.334,469.242,957.5,451.363a1.8,1.8,0,0,1,2.975,0l12.166,17.879a1.787,1.787,0,0,1-1.487,2.789H946.821A1.787,1.787,0,0,1,945.334,469.242Z" fill="#fcca9f"/>
            <path id="Path_249" data-name="Path 249" d="M971.153,472.03h-5.869a1.786,1.786,0,0,0,1.488-2.789l-10.719-15.754,1.446-2.124a1.8,1.8,0,0,1,2.975,0l12.166,17.878a1.786,1.786,0,0,1-1.487,2.789Z" fill="#fcb982"/>
          </g>
          <path id="Path_250" data-name="Path 250" d="M983.713,469.41l-11.43-16.8a1.692,1.692,0,0,0-2.8,0l-11.431,16.8a1.679,1.679,0,0,0,1.4,2.621h22.861A1.679,1.679,0,0,0,983.713,469.41Z" fill="#fddbbf"/>
          <path id="Path_251" data-name="Path 251" d="M982.316,472.031H976.8a1.679,1.679,0,0,0,1.4-2.621l-10.071-14.8,1.359-2a1.692,1.692,0,0,1,2.8,0l11.431,16.8a1.679,1.679,0,0,1-1.4,2.621Z" fill="#fcca9f"/>
        </g>
        <g id="Group_66" data-name="Group 66">
          <path id="Path_252" data-name="Path 252" d="M1003.595,484.233l3.513-7.806H934.662l3.514,7.806a3.375,3.375,0,0,0,3.08,1.985h59.258A3.376,3.376,0,0,0,1003.595,484.233Z" fill-rule="evenodd" fill="url(#linear-gradient-5)"/>
          <path id="Path_253" data-name="Path 253" d="M934.691,476.426l3.512,7.807a3.38,3.38,0,0,0,3.082,1.985h5.177a3.377,3.377,0,0,1-3.082-1.985l-3.514-7.807Z" fill-rule="evenodd" fill="url(#linear-gradient-6)"/>
          <path id="Path_254" data-name="Path 254" d="M937.291,482.267l-2.629-5.841h72.446l-2.629,5.841Z" fill="#dce8ff" fill-rule="evenodd"/>
          <path id="Path_255" data-name="Path 255" d="M1009.241,478.912H932.529a3.567,3.567,0,1,1,0-7.133h76.712a3.567,3.567,0,1,1,0,7.133Z" fill-rule="evenodd" fill="url(#linear-gradient-7)"/>
          <path id="Path_256" data-name="Path 256" d="M928.367,475.345a3.575,3.575,0,0,0,3.584,3.566h5.177a3.566,3.566,0,1,1,0-7.132h-5.177a3.575,3.575,0,0,0-3.584,3.566Z" fill-rule="evenodd" fill="url(#linear-gradient-8)"/>
        </g>
        <g id="Group_67" data-name="Group 67">
          <path id="Path_257" data-name="Path 257" d="M977.224,449.818h-.018a1.259,1.259,0,1,1,0-2.518h.018a1.259,1.259,0,1,1,0,2.518Z" fill="#8dc637"/>
        </g>
        <g id="Group_68" data-name="Group 68">
          <path id="Path_258" data-name="Path 258" d="M965.316,451.837h-.024a1.259,1.259,0,1,1,.006-2.518h.023a1.259,1.259,0,1,1-.005,2.518Z" fill="#8dc637"/>
        </g>
        <g id="Group_69" data-name="Group 69">
          <ellipse id="Ellipse_81" data-name="Ellipse 81" cx="4.127" cy="4.106" rx="4.127" ry="4.106" transform="translate(966.758 438.583)" fill="#fb4a59"/>
          <path id="Path_259" data-name="Path 259" d="M975.012,442.689a4.113,4.113,0,0,1-4.031,4.1,4.1,4.1,0,0,0-3.029-6.893h-.1a4.131,4.131,0,0,1,7.156,2.789Z" fill="#f82f40"/>
        </g>
      </g>
      <g id="Group_71" data-name="Group 71">
        <line id="Line_16" data-name="Line 16" x2="32.439" transform="translate(972.277 532.455)" fill="none" stroke="#fff" stroke-width="2.88"/>
        <line id="Line_17" data-name="Line 17" x2="41.186" y2="0.574" transform="translate(971.118 546.224)" fill="none" stroke="#fff" stroke-width="2.88"/>
        <line id="Line_18" data-name="Line 18" x2="11.585" transform="translate(972.277 561.141)" fill="none" stroke="#fff" stroke-width="2.88"/>
        <ellipse id="Ellipse_82" data-name="Ellipse 82" cx="20.854" cy="20.654" rx="20.854" ry="20.654" transform="translate(918.984 526.144)" fill="#95b53b"/>
      </g>
    </g>
    <rect id="Rectangle_30" data-name="Rectangle 30" width="28.787" height="206.543" rx="4.8" transform="translate(900.471 374.891)" fill="#6b7d39" opacity="0.318" style="isolation: isolate"/>
    <g id="leftCard">
      <path id="Path_260" data-name="Path 260" d="M704.72,329.74H905.266a6.72,6.72,0,0,1,6.72,6.72V613.14a6.72,6.72,0,0,1-6.72,6.72H704.72a6.72,6.72,0,0,1-6.72-6.72V336.46A6.72,6.72,0,0,1,704.72,329.74Z" fill-rule="evenodd" fill="url(#linear-gradient-9)"/>
      <rect id="Rectangle_31" data-name="Rectangle 31" width="192.498" height="191.926" transform="translate(709.639 339.559)" fill="#95b53b"/>
      <ellipse id="Ellipse_83" data-name="Ellipse 83" cx="66.255" cy="66.058" rx="66.255" ry="66.058" transform="translate(748.139 371.696)" fill="#83a329"/>
      <g id="Group-17">
        <path id="Path-144" d="M771.343,439.139l-9.592-.167a4.857,4.857,0,0,1-4.757-4.476,7.042,7.042,0,0,0-4.456-6.005l-.937-.366a5.822,5.822,0,0,1-3.441-7.148l.743-2.394-1.68-1.741a5.641,5.641,0,0,1,.142-7.977c.028-.028.057-.055.087-.082l.894-.828a4.521,4.521,0,0,1,6.388.249l.016.018.639.7a4.819,4.819,0,0,0,5.664,1.08,3.009,3.009,0,0,1,4.022,1.389,3.069,3.069,0,0,1,.19.5l1.394,4.942a4.537,4.537,0,0,0,5.6,3.134c.1-.03.209-.063.311-.1a2.518,2.518,0,0,1,3.281,3.04l-4.506,16.234Z" fill-rule="evenodd" fill="url(#linear-gradient-10)"/>
        <path id="Path_261" data-name="Path 261" d="M838.963,437.694l-4.932-8.183a4.852,4.852,0,0,1,1.277-6.41,7.045,7.045,0,0,0,2.743-6.968l-.182-.968a5.812,5.812,0,0,1,4.231-6.69l2.456-.647.586-2.329a5.675,5.675,0,0,1,6.888-4.116l.092.024,1.188.321a4.494,4.494,0,0,1,3.168,5.511l-.011.042-.255.908a4.792,4.792,0,0,0,2.082,5.364,3,3,0,0,1,.629,4.559l-3.474,3.808a4.512,4.512,0,0,0,.293,6.374c.085.077.173.152.264.223a2.507,2.507,0,0,1-.832,4.38l-16.211,4.8Z" fill-rule="evenodd" fill="url(#linear-gradient-11)"/>
        <path id="Path_262" data-name="Path 262" d="M761.963,432.338l-4.931-8.183a4.853,4.853,0,0,1,1.276-6.41,7.044,7.044,0,0,0,2.744-6.968l-.182-.968a5.812,5.812,0,0,1,4.23-6.69l2.456-.647.587-2.33a5.675,5.675,0,0,1,6.888-4.115l.092.024,1.188.321a4.494,4.494,0,0,1,3.168,5.511l-.012.042-.254.908a4.793,4.793,0,0,0,2.081,5.364,2.993,2.993,0,0,1,.959,4.123,2.907,2.907,0,0,1-.329.435l-3.474,3.809a4.513,4.513,0,0,0,.292,6.374c.086.077.174.152.264.223a2.506,2.506,0,0,1-.831,4.38l-16.212,4.8Z" fill-rule="evenodd" fill="url(#linear-gradient-12)"/>
        <path id="Path-74" d="M854.684,429.72q-14.943-30.351-32.763-30.351c-17.82,0-19.781,17.4-42.261,17.4s-6.135,8.154-11.2,17.345Z" fill="#ffac32" fill-rule="evenodd"/>
        <path id="Path-77" d="M795.428,415.58a31.408,31.408,0,0,0,10.46-5.252c5.156-3.818,10.635-7.511,15.294-7.511s14.982,1.929,28.265,24.684" fill="none" stroke="#fff" stroke-width="1.344"/>
        <path id="Path_263" data-name="Path 263" d="M794.7,420.165a31.386,31.386,0,0,0,10.46-5.251c5.156-3.818,10.635-7.511,15.294-7.511s14.982,1.929,28.265,24.683" fill="none" stroke="#fff" stroke-width="1.344"/>
        <path id="Path_264" data-name="Path 264" d="M793.8,426.414a31.409,31.409,0,0,0,10.461-5.251c5.156-3.818,10.634-7.511,15.294-7.511s14.981,1.929,28.265,24.683" fill="none" stroke="#fff" stroke-width="1.344"/>
        <path id="Path_265" data-name="Path 265" d="M793.8,430.878a31.412,31.412,0,0,0,10.461-5.252c5.156-3.818,10.634-7.511,15.294-7.511s14.981,1.929,28.265,24.684" fill="none" stroke="#fff" stroke-width="1.344"/>
        <g id="Group_73" data-name="Group 73">
          <path id="Path_266" data-name="Path 266" d="M829.555,424.562a17.289,17.289,0,0,0-2.989,3.909.3.3,0,0,1-.568-.152V423.6l-3.135-.247-.806,4.436a.3.3,0,0,1-.571.079,27.984,27.984,0,0,0-3.023-4.593l-1.076-.286-.187,1.045a29.046,29.046,0,0,1,4.208,10.43.748.748,0,0,0,.737.617h3.6a.746.746,0,0,0,.734-.6c.354-1.762,1.793-7.184,4.569-9.633Z" fill="#e6f5ad"/>
          <path id="Path_267" data-name="Path 267" d="M830.151,424.644l-.615-.118a17.38,17.38,0,0,0-3,3.927.305.305,0,0,1-.569-.153v1.893a.421.421,0,0,0,.829.1,15.039,15.039,0,0,1,3.352-5.651Z" fill="#d0e092" fill-rule="evenodd"/>
          <path id="Path_268" data-name="Path 268" d="M824.085,423.45l-1.3-.1-.806,4.436a.3.3,0,0,1-.572.079,28.043,28.043,0,0,0-3.027-4.593l-1.078-.286-.187,1.045a28.984,28.984,0,0,1,4.213,10.43.749.749,0,0,0,.739.617h1.271Z" fill="#d0e092"/>
          <path id="Path_269" data-name="Path 269" d="M817.2,424.007a29.16,29.16,0,0,1,4.194,10.451.747.747,0,0,0,.736.618h.07a20.773,20.773,0,0,0-4.847-11.93Z" fill="#c0d17d"/>
          <path id="Path_270" data-name="Path 270" d="M830.857,416.844a4.329,4.329,0,0,0-.573.043,5.652,5.652,0,0,0-9.791-2.087,4.551,4.551,0,0,0-1.276-.185,4.489,4.489,0,0,0-4.44,3.729A3.343,3.343,0,1,0,818,423.359a4.568,4.568,0,0,0,1.217.169,4.514,4.514,0,0,0,2.365-.668,5.664,5.664,0,0,0,5.885.4,4.113,4.113,0,1,0,3.39-6.415Z" fill-rule="evenodd" fill="url(#linear-gradient-13)"/>
          <path id="Path_271" data-name="Path 271" d="M827.342,423.1a.775.775,0,0,0-.759-.354,4.8,4.8,0,0,1-.627.042,4.878,4.878,0,0,1-4.133-2.271.749.749,0,0,0-.7-.341c-.136.013-.274.019-.413.019a4.858,4.858,0,0,1-4.816-4.111,4.425,4.425,0,0,0-1.118,2.274,3.33,3.33,0,0,0-.291,6.6,3.388,3.388,0,0,0,3.51-1.6,4.5,4.5,0,0,0,3.576-.5,5.66,5.66,0,0,0,5.878.4Z" fill="#95b53b" fill-rule="evenodd"/>
        </g>
        <path id="Path_272" data-name="Path 272" d="M752.616,429.72q11.539-23.209,25.3-23.21c13.762,0,15.277,13.309,32.638,13.309s30.113,2.873,34.025,9.9Z" fill="#fdc952" fill-rule="evenodd"/>
        <path id="Path-76" d="M762.989,427.5s8.368-13.983,14.344-13.983,11.247,5.957,18.111,9.97,22.648,1.742,22.648,4.013" fill="none" stroke="#fff" stroke-width="1.344"/>
        <path id="Path_273" data-name="Path 273" d="M764.255,432.1s7.5-13.068,14.659-13.068,9.043,5.042,15.4,9.055,20.976,1.742,20.976,4.013" fill="none" stroke="#fff" stroke-width="1.344"/>
        <path id="Path_274" data-name="Path 274" d="M764.255,436.538s7.5-13.067,14.659-13.067,9.043,5.042,15.4,9.054,20.976,1.743,20.976,4.013" fill="none" stroke="#fff" stroke-width="1.344"/>
        <path id="Path-75" d="M757.69,428.789q11.086-19.516,19.8-19.517c8.713,0,12.73,9.432,24.817,12.255s28.012-.08,34.957,5.707" fill="none" stroke="#fff" stroke-width="1.344"/>
        <path id="Path_275" data-name="Path 275" d="M746.348,426.149H858.266l-3.121,20.616a53.44,53.44,0,0,1-105.676,0l-3.121-20.616Z" fill-rule="evenodd" fill="url(#linear-gradient-14)"/>
        <path id="Path_276" data-name="Path 276" d="M789.772,475.852q3.78,9.143,15.186,16.289-1.317.066-2.651.066a53.439,53.439,0,0,1-52.838-45.442l-3.121-20.616h33.879Q785.4,465.276,789.772,475.852Z" fill-rule="evenodd" fill="url(#linear-gradient-15)"/>
        <ellipse id="Ellipse_84" data-name="Ellipse 84" cx="3.134" cy="3.124" rx="3.134" ry="3.124" transform="translate(799.173 410.081)" fill="#fe5f41"/>
        <ellipse id="Ellipse_85" data-name="Ellipse 85" cx="3.134" cy="3.124" rx="3.134" ry="3.124" transform="translate(832.301 415.437)" fill="#fe5f41"/>
        <ellipse id="Ellipse_86" data-name="Ellipse 86" cx="3.134" cy="3.124" rx="3.134" ry="3.124" transform="translate(762.464 419.008)" fill="#fe5f41"/>
        <ellipse id="Ellipse_87" data-name="Ellipse 87" cx="3.134" cy="3.124" rx="3.134" ry="3.124" transform="translate(781.266 412.759)" fill="#fe5f41"/>
      </g>
      <g id="Group_74" data-name="Group 74">
        <line id="Line_19" data-name="Line 19" x2="45.496" transform="translate(798.709 551.062)" fill="none" stroke="#fff" stroke-width="4.032"/>
        <line id="Line_20" data-name="Line 20" x2="57.764" y2="0.806" transform="translate(797.084 570.404)" fill="none" stroke="#fff" stroke-width="4.032"/>
        <line id="Line_21" data-name="Line 21" x2="16.249" transform="translate(798.709 591.357)" fill="none" stroke="#fff" stroke-width="4.032"/>
        <ellipse id="Ellipse_88" data-name="Ellipse 88" cx="29.248" cy="29.012" rx="29.248" ry="29.012" transform="translate(723.965 542.197)" fill="#95b53b"/>
      </g>
    </g>
    <g id="bigArrow">
      <path id="Path_277" data-name="Path 277" d="M735.425,620V581.357a5.76,5.76,0,0,1,9.864-4.042L787.329,620h-51.9Z" fill="#6b7d39" fill-rule="evenodd" opacity="0.318" style="isolation: isolate"/>
      <path id="Path_278" data-name="Path 278" d="M807.564,619.937l-48.629-49.371a4.8,4.8,0,0,0-8.219,3.369l0,69.191a4.8,4.8,0,0,0,7.941,3.629L769.4,637.46h0l12.459,30.37a4.8,4.8,0,0,0,6.252,2.624l11.979-4.88a4.8,4.8,0,0,0,2.635-6.256l-.005-.011-12.449-30.348h0l14.165-.862a4.8,4.8,0,0,0,3.128-8.16Z" fill="#d9e4ff" fill-rule="evenodd"/>
      <path id="Path_279" data-name="Path 279" d="M750.717,603.161q29.5,18.2,54.132,14.3l.238-.037,4.456,4.525a3.517,3.517,0,0,1-2.3,5.979l-16.974,1.033L803.209,660.5l0,.005a3.518,3.518,0,0,1-1.932,4.587l-14.344,5.843a3.527,3.527,0,0,1-4.593-1.924L769.4,637.46l-12.85,11.12a3.525,3.525,0,0,1-5.832-2.659v-42.76Z" fill-rule="evenodd" fill="url(#linear-gradient-16)"/>
    </g>
  </g>
</svg>
