<svg xmlns="http://www.w3.org/2000/svg" xmlns:xlink="http://www.w3.org/1999/xlink" width="108.34" height="2198.33" viewBox="0 0 108.34 2198.33">
  <defs>
    <linearGradient id="linear-gradient" x1="-27.609" y1="10.795" x2="-27.609" y2="10.775" gradientUnits="objectBoundingBox">
      <stop offset="0" stop-color="#c7db6d"/>
      <stop offset="1" stop-color="#95b53b"/>
    </linearGradient>
    <linearGradient id="linear-gradient-2" x1="-26.044" y1="12.286" x2="-26.044" y2="12.26" xlink:href="#linear-gradient"/>
    <linearGradient id="linear-gradient-3" x1="-27.113" y1="13.036" x2="-27.113" y2="13.01" xlink:href="#linear-gradient"/>
    <linearGradient id="linear-gradient-4" x1="-20.55" y1="8.809" x2="-20.55" y2="8.788" xlink:href="#linear-gradient"/>
    <linearGradient id="linear-gradient-5" x1="-21.666" y1="9.255" x2="-21.666" y2="9.234" xlink:href="#linear-gradient"/>
  </defs>
  <g id="short-leaf-mobile" transform="translate(0.573)">
    <g id="Group-6" transform="translate(0)">
      <path id="Path-144" d="M1275.643,563.678l-9.469-2.5a4.515,4.515,0,0,1-3.3-5.1,6.4,6.4,0,0,0-2.736-6.344l-1.015-.684a5.477,5.477,0,0,1-1.558-7.476l1.123-1.769-1.2-1.931a5.107,5.107,0,0,1,1.642-7.034q.187-.116.383-.216l1.087-.552a4.614,4.614,0,0,1,6.071,1.784l.411.7a5.021,5.021,0,0,0,5.257,2.4,3.076,3.076,0,0,1,3.589,2.459,3.223,3.223,0,0,1,.049.422l.2,4.352a4.632,4.632,0,0,0,4.843,4.412c.058,0,.116-.006.174-.011a2.482,2.482,0,0,1,2.344,3.737l-7.9,13.349Z" transform="translate(-1229.281 -529.57)" fill-rule="evenodd" fill="url(#linear-gradient)"/>
      <path id="Path-141" d="M1241.261,547.766l12.512,24.35-9.438,120.306,42.541,218.432-81.491,161.819L1312.6,1244.091l-107.213,293.623,81.491,307.883-45.615,453.513,24.568,433.752" transform="translate(-1205.385 -535.06)" fill="none" stroke="#18233d" stroke-linecap="round" stroke-width="1" opacity="0.599"/>
      <g id="Group-5" transform="translate(14.841 37.23)">
        <path id="Path_140" data-name="Path 140" d="M1267.174,605.788v-8.333a4.315,4.315,0,0,0-3.907-4.3,6.286,6.286,0,0,1-5.291-4.042l-.293-.774a5.155,5.155,0,0,0-6.245-3.137l-2.2.63-1.524-1.5a5.057,5.057,0,0,0-7.152.06l-.017.018-.747.767a3.927,3.927,0,0,0,.074,5.553l.062.058.623.582a4.168,4.168,0,0,1,.861,4.961,2.615,2.615,0,0,0,1.579,3.705l4.462,1.322a3.94,3.94,0,0,1,2.658,4.9c-.031.1-.066.2-.1.3a2.2,2.2,0,0,0,2.6,2.932l14.563-3.709Z" transform="translate(-1238.683 -582.886)" fill-rule="evenodd" fill="url(#linear-gradient-2)"/>
        <line id="Path-143" x1="21.351" y1="16.301" transform="translate(10.36 8.603)" fill="none" stroke="#18233d" stroke-linecap="round" stroke-width="1"/>
      </g>
      <g id="Group_39" data-name="Group 39" transform="translate(48.252 17.207)">
        <path id="Path_141" data-name="Path 141" d="M1291.143,577.114v-8.333a4.315,4.315,0,0,1,3.907-4.3,6.288,6.288,0,0,0,5.292-4.042l.292-.774a5.156,5.156,0,0,1,6.245-3.137l2.2.63,1.523-1.5a5.058,5.058,0,0,1,7.153.06l.017.018.747.767a3.927,3.927,0,0,1-.075,5.553l-.061.058-.624.582a4.167,4.167,0,0,0-.86,4.961,2.613,2.613,0,0,1-1.122,3.521,2.648,2.648,0,0,1-.457.184l-4.461,1.322a3.939,3.939,0,0,0-2.658,4.9c.03.1.065.2.1.3a2.2,2.2,0,0,1-2.6,2.932l-14.563-3.709Z" transform="translate(-1287.923 -554.212)" fill-rule="evenodd" fill="url(#linear-gradient-3)"/>
        <line id="Line_13" data-name="Line 13" y1="16.301" x2="21.351" transform="translate(0 8.603)" fill="none" stroke="#18233d" stroke-linecap="round" stroke-width="1"/>
      </g>
      <path id="Path_142" data-name="Path 142" d="M1260.63,660.36V649.943a5.392,5.392,0,0,0-4.884-5.368,7.864,7.864,0,0,1-6.615-5.054l-.365-.968a6.445,6.445,0,0,0-7.806-3.922l-2.75.788-1.905-1.873a6.322,6.322,0,0,0-8.941.075l-.022.022-.934.959a4.908,4.908,0,0,0,.094,6.941c.025.024.05.049.076.073l.78.728a5.209,5.209,0,0,1,1.076,6.2,3.265,3.265,0,0,0,1.4,4.4,3.212,3.212,0,0,0,.571.23l5.577,1.653a4.926,4.926,0,0,1,3.323,6.122q-.058.193-.13.381a2.755,2.755,0,0,0,3.248,3.665l18.2-4.636Z" transform="translate(-1219.719 -560.394)" fill-rule="evenodd" fill="url(#linear-gradient-4)"/>
      <path id="Path_143" data-name="Path 143" d="M1288.982,639.037V628.62a5.393,5.393,0,0,1,4.884-5.369,7.862,7.862,0,0,0,6.615-5.053l.365-.968a6.445,6.445,0,0,1,7.806-3.922l2.75.788,1.905-1.873a6.322,6.322,0,0,1,8.941.075l.021.023.934.959a4.908,4.908,0,0,1-.094,6.941c-.025.024-.05.049-.076.073l-.78.727a5.211,5.211,0,0,0-1.076,6.2,3.265,3.265,0,0,1-1.973,4.63l-5.577,1.653a4.925,4.925,0,0,0-3.323,6.121q.058.194.13.381a2.755,2.755,0,0,1-3.248,3.665l-18.2-4.636Z" transform="translate(-1239.019 -553.961)" fill-rule="evenodd" fill="url(#linear-gradient-5)"/>
      <path id="Path_340" data-name="Path 340" d="M1288.982,639.037V628.62a5.393,5.393,0,0,1,4.884-5.369,7.862,7.862,0,0,0,6.615-5.053l.365-.968a6.445,6.445,0,0,1,7.806-3.922l2.75.788,1.905-1.873a6.322,6.322,0,0,1,8.941.075l.021.023.934.959a4.908,4.908,0,0,1-.094,6.941c-.025.024-.05.049-.076.073l-.78.727a5.211,5.211,0,0,0-1.076,6.2,3.265,3.265,0,0,1-1.973,4.63l-5.577,1.653a4.925,4.925,0,0,0-3.323,6.121q.058.194.13.381a2.755,2.755,0,0,1-3.248,3.665l-18.2-4.636Z" transform="translate(-1275.416 389.043)" fill-rule="evenodd" fill="url(#linear-gradient-5)"/>
      <line id="Path-142" y1="24.888" x2="33.162" transform="translate(44.714 64.896)" fill="none" stroke="#18233d" stroke-linecap="round" stroke-width="1"/>
      <line id="Path-142-2" data-name="Path-142" y1="24.888" x2="33.162" transform="translate(8.317 1007.899)" fill="none" stroke="#18233d" stroke-linecap="round" stroke-width="1"/>
      <line id="Path-145" x1="30.176" y1="21.932" transform="translate(13.155 79.045)" fill="none" stroke="#18233d" stroke-linecap="round" stroke-width="1"/>
    </g>
  </g>
</svg>
