<svg xmlns="http://www.w3.org/2000/svg" xmlns:xlink="http://www.w3.org/1999/xlink" width="263.764" height="5016.662" viewBox="0 0 263.764 5016.662">
  <defs>
    <linearGradient id="linear-gradient" x1="-27.609" y1="10.795" x2="-27.609" y2="10.775" gradientUnits="objectBoundingBox">
      <stop offset="0" stop-color="#c7db6d"/>
      <stop offset="1" stop-color="#95b53b"/>
    </linearGradient>
    <linearGradient id="linear-gradient-2" x1="-26.044" y1="12.286" x2="-26.044" y2="12.26" xlink:href="#linear-gradient"/>
    <linearGradient id="linear-gradient-3" x1="-27.113" y1="13.036" x2="-27.113" y2="13.01" xlink:href="#linear-gradient"/>
    <linearGradient id="linear-gradient-4" x1="-20.55" y1="8.809" x2="-20.55" y2="8.788" xlink:href="#linear-gradient"/>
    <linearGradient id="linear-gradient-5" x1="-21.666" y1="9.255" x2="-21.666" y2="9.234" xlink:href="#linear-gradient"/>
  </defs>
  <g id="Group-7" transform="translate(80.225)">
    <g id="Group-6" transform="translate(-44.641)">
      <path id="Path-144" d="M1290.641,590.7l-16.97-4.488a8.092,8.092,0,0,1-5.917-9.134,11.475,11.475,0,0,0-4.9-11.369l-1.818-1.226a9.816,9.816,0,0,1-2.793-13.4l2.013-3.171-2.151-3.461a9.153,9.153,0,0,1,2.943-12.605q.334-.209.686-.387l1.947-.99a8.269,8.269,0,0,1,10.881,3.2l.737,1.26a9,9,0,0,0,9.422,4.3,5.513,5.513,0,0,1,6.432,4.406,5.7,5.7,0,0,1,.088.756l.363,7.8a8.3,8.3,0,0,0,8.679,7.908c.1,0,.208-.011.312-.02a4.448,4.448,0,0,1,4.2,6.7L1290.641,590.7Z" transform="translate(-1172.016 -529.57)" fill-rule="evenodd" fill="url(#linear-gradient)"/>
      <path id="Path-141" d="M1269.68,547.766,1292.1,591.4,1275.189,807.01,1134.81,1265.574l259.935,380.582-137.985,881.283,127.525,785,13.241,757.206v196.925l-105.422,672.4v602.189" transform="translate(-1169.845 -524.995)" fill="none" stroke="#18233d" stroke-linecap="round" stroke-width="1" opacity="0.599"/>
      <g id="Group-5" transform="translate(62.136 66.721)">
        <path id="Path_140" data-name="Path 140" d="M1289.742,623.93V609a7.733,7.733,0,0,0-7-7.7,11.267,11.267,0,0,1-9.482-7.244l-.525-1.388a9.239,9.239,0,0,0-11.191-5.623l-3.943,1.129-2.731-2.684a9.063,9.063,0,0,0-12.818.108l-.031.033L1240.679,587a7.037,7.037,0,0,0,.133,9.951c.036.035.074.07.11.1l1.117,1.042a7.469,7.469,0,0,1,1.543,8.891,4.688,4.688,0,0,0,2.829,6.64l8,2.369a7.061,7.061,0,0,1,4.764,8.776c-.055.184-.118.367-.186.546a3.949,3.949,0,0,0,4.657,5.255l26.1-6.647Z" transform="translate(-1238.684 -582.886)" fill-rule="evenodd" fill="url(#linear-gradient-2)"/>
        <line id="Path-143" x1="38.263" y1="29.213" transform="translate(18.566 15.418)" fill="none" stroke="#18233d" stroke-linecap="round" stroke-width="1"/>
      </g>
      <g id="Group_39" data-name="Group 39" transform="translate(122.014 30.837)">
        <path id="Path_141" data-name="Path 141" d="M1291.143,595.256V580.322a7.732,7.732,0,0,1,7-7.7,11.269,11.269,0,0,0,9.483-7.245l.523-1.388a9.24,9.24,0,0,1,11.193-5.623l3.942,1.129,2.73-2.684a9.065,9.065,0,0,1,12.82.108l.031.033,1.339,1.375a7.037,7.037,0,0,1-.134,9.951l-.109.1-1.119,1.042a7.469,7.469,0,0,0-1.542,8.891,4.683,4.683,0,0,1-2.011,6.31,4.749,4.749,0,0,1-.82.33l-8,2.369a7.06,7.06,0,0,0-4.764,8.776c.054.184.116.367.186.546a3.95,3.95,0,0,1-4.656,5.255l-26.1-6.648Z" transform="translate(-1285.372 -554.212)" fill-rule="evenodd" fill="url(#linear-gradient-3)"/>
        <line id="Line_13" data-name="Line 13" y1="29.213" x2="38.263" transform="translate(0 15.418)" fill="none" stroke="#18233d" stroke-linecap="round" stroke-width="1"/>
      </g>
      <path id="Path_142" data-name="Path 142" d="M1288.84,683.038V664.369a9.663,9.663,0,0,0-8.752-9.621,14.092,14.092,0,0,1-11.855-9.057l-.653-1.734a11.55,11.55,0,0,0-13.99-7.029l-4.929,1.412-3.414-3.356a11.33,11.33,0,0,0-16.023.135l-.039.04-1.674,1.72a8.8,8.8,0,0,0,.168,12.439c.045.044.09.088.136.13l1.4,1.3a9.336,9.336,0,0,1,1.928,11.114,5.852,5.852,0,0,0,2.513,7.887,5.736,5.736,0,0,0,1.024.412l9.995,2.962a8.827,8.827,0,0,1,5.956,10.971q-.1.345-.233.682a4.936,4.936,0,0,0,5.82,6.567l32.624-8.308Z" transform="translate(-1201.504 1281.548)" fill-rule="evenodd" fill="url(#linear-gradient-4)"/>
      <path id="Path_143" data-name="Path 143" d="M1288.982,661.715V643.046a9.665,9.665,0,0,1,8.752-9.622,14.089,14.089,0,0,0,11.855-9.055l.653-1.735a11.55,11.55,0,0,1,13.99-7.029l4.929,1.412,3.414-3.356a11.331,11.331,0,0,1,16.023.134l.039.041,1.674,1.719a8.8,8.8,0,0,1-.168,12.439c-.045.044-.09.088-.136.13l-1.4,1.3a9.338,9.338,0,0,0-1.928,11.115,5.852,5.852,0,0,1-3.536,8.3l-10,2.962a8.826,8.826,0,0,0-5.955,10.97q.1.347.233.683a4.936,4.936,0,0,1-5.82,6.568l-32.625-8.308Z" transform="translate(-1163.901 -509.245)" fill-rule="evenodd" fill="url(#linear-gradient-5)"/>
      <path id="Path_341" data-name="Path 341" d="M1288.982,661.715V643.046a9.665,9.665,0,0,1,8.752-9.622,14.089,14.089,0,0,0,11.855-9.055l.653-1.735a11.55,11.55,0,0,1,13.99-7.029l4.929,1.412,3.414-3.356a11.331,11.331,0,0,1,16.023.134l.039.041,1.674,1.719a8.8,8.8,0,0,1-.168,12.439c-.045.044-.09.088-.136.13l-1.4,1.3a9.338,9.338,0,0,0-1.928,11.115,5.852,5.852,0,0,1-3.536,8.3l-10,2.962a8.826,8.826,0,0,0-5.955,10.97q.1.347.233.683a4.936,4.936,0,0,1-5.82,6.568l-32.625-8.308Z" transform="translate(-1191.901 1332.755)" fill-rule="evenodd" fill="url(#linear-gradient-5)"/>
      <line id="Path-142" y1="44.604" x2="59.43" transform="translate(115.674 116.303)" fill="none" stroke="#18233d" stroke-linecap="round" stroke-width="1"/>
      <line id="Path-142-2" data-name="Path-142" y1="44.604" x2="59.43" transform="translate(87.674 1958.303)" fill="none" stroke="#18233d" stroke-linecap="round" stroke-width="1"/>
      <line id="Path-145" x1="54.079" y1="39.305" transform="translate(37.595 1927.093)" fill="none" stroke="#18233d" stroke-linecap="round" stroke-width="1"/>
    </g>
  </g>
</svg>
